<?xml version="1.0" encoding="utf-8"?>
<!-- Generator: Adobe Illustrator 25.3.1, SVG Export Plug-In . SVG Version: 6.00 Build 0)  -->
<svg version="1.1" id="master-artboard" xmlns="http://www.w3.org/2000/svg" xmlns:xlink="http://www.w3.org/1999/xlink" x="0px"
	 y="0px" viewBox="0 0 1939.7 485" style="enable-background:new 0 0 1939.7 485;" xml:space="preserve">
<style type="text/css">
	.st0{fill:#FFFFFF;}
</style>
<g>
	<path class="st0" d="M161.8,209.3c0.4,2.3-1.1,4.2-3.4,4.2h-27c-1.3,0-2.1-0.7-2.5-1.9c-2.8-6.5-13.4-26.2-41.8-26.2
		c-24,0-41.2,24.6-41.2,52c0,24.6,14.9,47.8,41.2,47.8c25.9,0,36.1-14.9,39.9-26.2H94.3c-1.9,0-3.2-1.4-3.2-3.5v-22.1
		c0-2.1,1.3-3.5,3.2-3.5h65.4c1.9,0,3.2,1.4,3.2,3.5v11.6c0,0,1.5,71.8-75.6,71.8c-45.2,0-74.5-35.1-74.5-83.1
		c0-43,26.5-83.8,74.3-83.8C132.3,149.8,156.7,180,161.8,209.3z"/>
	<path class="st0" d="M317.2,152.2c1.9,0,3.2,1.4,3.2,3.5c0,16.7,0.4,88-0.4,106.1c-1.1,20.4-6.8,55.3-63.5,55
		c-56.7,0.2-62.4-34.6-63.3-55c-0.8-18.1-0.4-89.4-0.4-106.1c0-2.1,1.3-3.5,3.2-3.5l31-0.2c1.9,0,3.2,1.4,3.2,3.5v88.5
		c0,11.1,0.2,37.4,26.3,37.4S283,255,283,243.9v-88.5c0-2.1,1.3-3.5,3.2-3.5L317.2,152.2z"/>
	<path class="st0" d="M499.8,308.9c1.1,2.8-0.6,5.6-3.6,5.6H466c-1.3,0-2.1-0.7-2.8-1.9l-13.8-35.3h-57.7l-13.8,35.3
		c-0.6,1.2-1.5,1.9-2.8,1.9H345c-3,0-4.7-2.8-3.6-5.6l59.2-156.1c0.6-1.2,1.5-1.9,2.8-1.9h34.4c1.3,0,2.1,0.7,2.8,1.9L499.8,308.9z
		 M420.2,194l-18.3,51.8h38.6L420.2,194z"/>
	<path class="st0" d="M621.6,151.9c50.3,0,62.8,30.2,62.8,55.5c0,20.4-6.8,39.5-30.1,49.9l24.8,50.9c1.5,3-0.4,6.3-3.6,6.3h-33.3
		c-1.1,0-1.9-0.7-2.5-1.6l-23.1-47.4c-3.4,0.2-7,0.2-10.8,0.2h-44.2V311c0,2.1-1.3,3.5-3.2,3.5h-28.4c-1.9,0-3.2-1.4-3.2-3.5V155.4
		c0-2.1,1.3-3.5,3.2-3.5H621.6z M610.6,233c31.8,0,36.3-10.9,36.3-23.9c0-7.9-2.5-23-31.6-23h-53.7V233H610.6z"/>
	<path class="st0" d="M863.5,232.3c0,50.9-32.5,84.5-78.3,84.5c-41.2,0-77.3-32.1-77.3-84.5c0-40.9,31-82.5,77.3-82.5
		C828.9,149.8,863.5,190.9,863.5,232.3z M741.6,231.1c0,28.3,19.1,49.9,42.7,49.9c25.3,0.5,45.9-22.8,45.9-48.3
		c0-26.7-18.3-48.8-45-48.8C762,184,741.6,206.5,741.6,231.1z"/>
	<path class="st0" d="M1014.9,166.3c2.1,1.2,3.2,3.9,1.7,6.5l-13.4,23.9c-1.1,1.9-3.4,2.8-5.3,1.9c-18.5-8.6-31.4-13.2-45.6-13.2
		c-14,0-21.2,6-21.2,12.5v0.5c0,9.5,19.5,13.9,41.4,19.7c28.5,8.1,50.7,22.8,50.7,46.9c0,36.9-22.7,51.6-67.3,51.6
		c-27.2,0-40.8-6.7-65.4-22.5c-2.3-1.6-3.2-4.4-1.5-7l13-19.7c1.3-1.9,3.6-2.1,5.1-1.2c20.6,13,35.7,17.9,54.1,17.9
		c16.6,0,25.3-6.3,25.3-13.7v-0.2c0-12.5-24.4-20.9-46.7-26.2c-28.5-7-46.1-18.1-46.1-47.6v-0.9c0-23.2,18.7-45.1,59.7-45.1
		C977.7,150.3,994.7,155.9,1014.9,166.3z"/>
	<path class="st0" d="M1247.1,181.2c0,2.1-1.3,3.5-3.2,3.5h-52.2V311c0,2.1-1.3,3.5-3.2,3.5h-31.2c-1.9,0-3.2-1.4-3.2-3.5V184.7
		h-51.6c-1.9,0-3.2-1.4-3.2-3.5v-25.8c0-2.1,1.3-3.5,3.2-3.5h141.4c1.9,0,3.2,1.4,3.2,3.5V181.2z"/>
	<path class="st0" d="M1413.4,232.3c0,50.9-32.5,84.5-78.3,84.5c-41.2,0-77.3-32.1-77.3-84.5c0-40.9,31-82.5,77.3-82.5
		C1378.8,149.8,1413.4,190.9,1413.4,232.3z M1291.5,231.1c0,28.3,19.1,49.9,42.7,49.9c25.3,0.5,45.9-22.8,45.9-48.3
		c0-26.7-18.3-48.8-45-48.8C1311.9,184,1291.5,206.5,1291.5,231.1z"/>
	<path class="st0" d="M1567.7,152.2c1.9,0,3.2,1.4,3.2,3.5c0,16.7,0.4,88-0.4,106.1c-1.1,20.4-6.8,55.3-63.5,55
		c-56.7,0.2-62.4-34.6-63.3-55c-0.8-18.1-0.4-89.4-0.4-106.1c0-2.1,1.3-3.5,3.2-3.5l31-0.2c1.9,0,3.2,1.4,3.2,3.5v88.5
		c0,11.1,0.2,37.4,26.3,37.4s26.5-26.2,26.5-37.4v-88.5c0-2.1,1.3-3.5,3.2-3.5L1567.7,152.2z"/>
	<path class="st0" d="M1700,151.9c50.3,0,62.8,30.2,62.8,55.5c0,20.4-6.8,39.5-30.1,49.9l24.8,50.9c1.5,3-0.4,6.3-3.6,6.3h-33.3
		c-1.1,0-1.9-0.7-2.5-1.6l-23.1-47.4c-3.4,0.2-7,0.2-10.8,0.2h-44.2V311c0,2.1-1.3,3.5-3.2,3.5h-28.4c-1.9,0-3.2-1.4-3.2-3.5V155.4
		c0-2.1,1.3-3.5,3.2-3.5H1700z M1688.9,233c31.8,0,36.3-10.9,36.3-23.9c0-7.9-2.5-23-31.6-23h-53.7V233H1688.9z"/>
	<path class="st0" d="M1912.1,166.3c2.1,1.2,3.2,3.9,1.7,6.5l-13.4,23.9c-1.1,1.9-3.4,2.8-5.3,1.9c-18.5-8.6-31.4-13.2-45.6-13.2
		c-14,0-21.2,6-21.2,12.5v0.5c0,9.5,19.5,13.9,41.4,19.7c28.5,8.1,50.7,22.8,50.7,46.9c0,36.9-22.7,51.6-67.3,51.6
		c-27.2,0-40.8-6.7-65.4-22.5c-2.3-1.6-3.2-4.4-1.5-7l13-19.7c1.3-1.9,3.6-2.1,5.1-1.2c20.6,13,35.7,17.9,54.1,17.9
		c16.6,0,25.3-6.3,25.3-13.7v-0.2c0-12.5-24.4-20.9-46.7-26.2c-28.5-7-46.1-18.1-46.1-47.6v-0.9c0-23.2,18.7-45.1,59.7-45.1
		C1874.9,150.3,1891.9,155.9,1912.1,166.3z"/>
</g>
</svg>
